<?xml version="1.0" encoding="utf-8"?>
<!-- Generator: Adobe Illustrator 21.0.0, SVG Export Plug-In . SVG Version: 6.00 Build 0)  -->
<svg version="1.1" id="Calque_1" xmlns="http://www.w3.org/2000/svg" xmlns:xlink="http://www.w3.org/1999/xlink" x="0px" y="0px"
	 viewBox="0 0 1190.6 841.9" style="enable-background:new 0 0 1190.6 841.9;" xml:space="preserve">
<style type="text/css">
	.st0{fill:#FFFFFF;}
	.st1{fill:#F7D111;}
	.st2{fill:none;stroke:#FFFFFF;stroke-width:1.5;stroke-linecap:square;}
</style>
<polygon class="st0" points="785.2,440.3 771.9,460 800.4,440.6 771.8,420.9 "/>
<polygon class="st0" points="761.1,440.3 747.8,460 776.3,440.6 747.7,420.9 "/>
<g>
	<path class="st1" d="M380,446.5c0,0,0.3,0.3,0.7,1c0.4,0.1,0.9,0.3,1.5,0.5c1.5,0.4,3.7,0.8,6.8,0.8c4.8,0,8.3-0.9,9.6-1.3
		c0.5-0.7,0.8-1.1,0.8-1.1c2.6-2.6,4.2-6.1,4.2-10c0-7.8-6.3-14.1-14.1-14.1c-7.8,0-14.1,6.3-14.1,14.1
		C375.5,440.2,377.3,443.9,380,446.5"/>
	<path class="st1" d="M382.8,451.3c0.2,0.4,0.3,0.8,0.5,1.3c0.2,0.1,0.5,0.2,0.8,0.3c1.1,0.3,2.8,0.6,5.2,0.6c3.3,0,5.8-0.6,7-1
		c0.2-0.5,0.3-0.9,0.5-1.3c-1.7,0.4-4.3,0.9-7.6,0.9C386.3,452,384.2,451.6,382.8,451.3"/>
	<path class="st1" d="M383.6,453.7c0.1,0.4,0.2,0.8,0.3,1.2c0.2,0.1,0.5,0.2,0.9,0.3c1,0.3,2.5,0.5,4.5,0.5c3,0,5.2-0.6,6.2-0.9
		c0.1-0.5,0.2-0.9,0.3-1.3c-1.4,0.4-3.8,0.9-6.7,0.9C386.7,454.4,384.8,454.1,383.6,453.7"/>
	<path class="st1" d="M389.3,456.8c-2.4,0-4.1-0.4-5.2-0.7c0,0.1,0,0.1,0,0.2c0.7,0.8,3.2,3.7,5.4,3.7c2.3,0,4.5-2.3,5.6-3.7
		c0-0.1,0-0.2,0-0.2C394.1,456.4,392,456.8,389.3,456.8"/>
	<path class="st1" d="M381.6,448.8c0.2,0.4,0.4,0.8,0.7,1.3c0.2,0.1,0.5,0.2,0.8,0.2c1.3,0.4,3.4,0.7,6.1,0.7c3.8,0,6.7-0.7,8.1-1.1
		c0.2-0.5,0.4-0.9,0.7-1.3c-1.8,0.5-4.9,1.1-8.8,1.1C385.6,449.6,383.1,449.2,381.6,448.8"/>
	<line class="st2" x1="807.8" y1="471.9" x2="368.2" y2="471.9"/>
</g>
</svg>
