<?xml version="1.0" encoding="utf-8"?>
<!-- Generator: Adobe Illustrator 21.0.0, SVG Export Plug-In . SVG Version: 6.00 Build 0)  -->
<svg version="1.1" id="Calque_1" xmlns="http://www.w3.org/2000/svg" xmlns:xlink="http://www.w3.org/1999/xlink" x="0px" y="0px"
	 viewBox="0 0 1190.6 841.9" style="enable-background:new 0 0 1190.6 841.9;" xml:space="preserve">
<style type="text/css">
	.st0{clip-path:url(#SVGID_2_);fill:#F7D111;}
</style>
<g>
	<defs>
		<rect id="SVGID_1_" x="536" y="313.4" width="118.5" height="118.5"/>
	</defs>
	<clipPath id="SVGID_2_">
		<use xlink:href="#SVGID_1_"  style="overflow:visible;"/>
	</clipPath>
	<path class="st0" d="M595.3,313.4c-32.7,0-59.2,26.5-59.2,59.2s26.5,59.2,59.2,59.2c32.7,0,59.2-26.5,59.2-59.2
		S628,313.4,595.3,313.4z M591.9,395.3c0,4.6-3.7,8.3-8.3,8.3h-5.2c-4.6,0-8.3-3.7-8.3-8.3v-45.4c0-4.6,3.7-8.3,8.3-8.3h5.2
		c4.6,0,8.3,3.7,8.3,8.3V395.3z M620.3,395.3c0,4.6-3.7,8.3-8.3,8.3h-5.2c-4.6,0-8.3-3.7-8.3-8.3v-45.4c0-4.6,3.7-8.3,8.3-8.3h5.2
		c4.6,0,8.3,3.7,8.3,8.3V395.3z"/>
	<path class="st0" d="M610.9,398.2H608c-2.5,0-4.6-2-4.6-4.6v-42c0-2.5,2-4.6,4.6-4.6h2.8c2.5,0,4.6,2,4.6,4.6v42
		C615.5,396.2,613.4,398.2,610.9,398.2"/>
	<path class="st0" d="M582.5,398.2h-2.8c-2.5,0-4.6-2-4.6-4.6v-42c0-2.5,2-4.6,4.6-4.6h2.8c2.5,0,4.6,2,4.6,4.6v42
		C587,396.2,585,398.2,582.5,398.2"/>
</g>
</svg>
