<?xml version="1.0" encoding="utf-8"?>
<!-- Generator: Adobe Illustrator 21.0.0, SVG Export Plug-In . SVG Version: 6.00 Build 0)  -->
<svg version="1.1" id="Calque_1" xmlns="http://www.w3.org/2000/svg" xmlns:xlink="http://www.w3.org/1999/xlink" x="0px" y="0px"
	 viewBox="0 0 1190.6 841.9" style="enable-background:new 0 0 1190.6 841.9;" xml:space="preserve">
<style type="text/css">
	.st0{clip-path:url(#SVGID_2_);fill:#FFFFFF;}
	.st1{clip-path:url(#SVGID_2_);fill:none;stroke:#FFFFFF;stroke-width:3.23;stroke-miterlimit:10;}
	.st2{clip-path:url(#SVGID_2_);fill:#C01422;}
	.st3{clip-path:url(#SVGID_2_);fill:none;stroke:#000000;stroke-width:0.673;stroke-miterlimit:10;}
	.st4{fill:#C01422;}
	.st5{fill:none;stroke:#000000;stroke-width:0.673;stroke-miterlimit:10;}
	.st6{clip-path:url(#SVGID_4_);fill:#C01422;}
	.st7{clip-path:url(#SVGID_4_);fill:none;stroke:#000000;stroke-width:0.673;stroke-miterlimit:10;}
	.st8{clip-path:url(#SVGID_6_);fill:#C01422;}
	.st9{clip-path:url(#SVGID_6_);fill:none;stroke:#000000;stroke-width:0.673;stroke-miterlimit:10;}
	.st10{clip-path:url(#SVGID_6_);}
</style>
<g>
	<defs>
		<rect id="SVGID_1_" x="582.1" y="363" width="69.8" height="115.9"/>
	</defs>
	<clipPath id="SVGID_2_">
		<use xlink:href="#SVGID_1_"  style="overflow:visible;"/>
	</clipPath>
	<path class="st0" d="M617,474.1l-0.2-0.4c-0.4-0.6-0.6-1.5-0.8-2.7c-0.3,1.2-0.7,2.2-1.2,2.8l-0.2,0.3h-17.9v-47h38.9v47H617z"/>
	<path class="st0" d="M636.4,426.4h-1.6h-37.3h-1.6v1.6v45.4v1.6h1.6h16.7h0.8l0.5-0.6c0.2-0.2,0.3-0.4,0.4-0.7
		c0.1,0.2,0.2,0.4,0.3,0.5l0.5,0.8h0.9h17.3h1.6v-1.6V428V426.4z M634.8,428v45.4h-17.3c-1.2-1.9-1.4-9-1.4-12.7c0-1.3,0-2.2,0-2.2
		s0,0.9,0,2.2c-0.1,3.7-0.4,10.8-2,12.7h-16.7V428H634.8z"/>
	<path class="st0" d="M631.4,446.8c-1.4,4.3,1.9,5.7,1.7,2.9c1.7,7.6,6.9,8.1,8.9,3.1c2.4-9.8-7.3-23.8-7.3-23.8l-3.7-1.3"/>
	<path class="st1" d="M631.4,446.8c-1.4,4.3,1.9,5.7,1.7,2.9c1.7,7.6,6.9,8.1,8.9,3.1c2.4-9.8-7.3-23.8-7.3-23.8l-3.7-1.3"/>
	<path class="st0" d="M601,447.3c1.4,4.3-1.9,5.7-1.7,2.9c-1.7,7.6-6.9,8.1-8.9,3.1c-2.4-9.8,7.3-23.8,7.3-23.8l4.6-0.7"/>
	<path class="st1" d="M601,447.3c1.4,4.3-1.9,5.7-1.7,2.9c-1.7,7.6-6.9,8.1-8.9,3.1c-2.4-9.8,7.3-23.8,7.3-23.8l4.6-0.7"/>
	<path class="st0" d="M594.3,433.3c-2.2,0-2.8-2.5-3.1-7c-0.1-1.8,0.3-3.2,1.3-4.2c1-1.1,2.7-1.7,4.7-1.7c2.1,0,4.3,0.6,5,1.2
		c0.8,0.4,6,0.5,10.1,0.6c3.6,0.1,7.2,0.1,10,0.4c0.7-0.2,3.3-1.1,6-1.8l0.1-0.1l0.1,0c3.1-0.8,5.5-1.3,7.1-1.3
		c0.8,0,1.9,0.1,2.4,0.9c0,0,3,5,1.4,7.8c-0.4,0.8-1.4,1.8-3.6,1.8h0c-0.5,0-1,0-1.6-0.1l-0.8,0c-1.2,0.2-2.4,0.3-3.4,0.4
		c-1.3,0.1-3.3,0.4-5.6,0.8c-4.6,0.7-10.3,1.5-14.2,1.5c-2.2,0-3.6-0.3-4.5-0.8c-0.8-0.6-1.8-0.8-2.8-0.8c-1.9,0-3.8,0.9-5.7,1.7
		l-0.2,0.1C595.9,433,595.1,433.3,594.3,433.3"/>
	<path class="st0" d="M635.5,418.6L635.5,418.6c-1.6,0-3.9,0.4-7.1,1.2l-0.3,0l-0.3,0.2l0,0l0,0c-2.5,0.7-4.9,1.5-5.8,1.8
		c-2.7-0.2-6.4-0.3-9.9-0.4c-3.7-0.1-8.6-0.2-9.7-0.5c-1-0.7-3.4-1.3-5.4-1.3c-2.3,0-4.1,0.7-5.3,1.9c-1.1,1.2-1.6,2.8-1.5,4.8
		c0.2,3.3,0.5,7.8,3.9,7.8c0.9,0,1.9-0.4,3-0.9l0.2-0.1c1.8-0.8,3.7-1.6,5.3-1.6c0.9,0,1.7,0.2,2.4,0.7c1,0.7,2.5,1,4.9,1
		c4,0,9.7-0.9,14.3-1.5c2.3-0.3,4.2-0.6,5.5-0.8c1.1-0.1,2.2-0.2,3.4-0.4l0.3,0l0.3,0c0.6,0.1,1.2,0.1,1.7,0.1
		c2.6,0,3.8-1.2,4.4-2.2c1.8-3.3-1.3-8.4-1.4-8.6C637.9,418.6,636.1,418.6,635.5,418.6 M635.5,420.2c0.9,0,1.5,0.2,1.8,0.5
		c1.2,1.9,4,8.3-1.6,8.3c-0.5,0-1,0-1.6-0.1c-0.3,0-0.6,0-0.9,0c-1.2,0.2-2.4,0.3-3.5,0.4c-4,0.4-13.9,2.3-19.7,2.3
		c-1.8,0-3.3-0.2-4-0.7c-1.1-0.7-2.2-1-3.3-1c-2.1,0-4.3,1-6.2,1.8c-1,0.4-1.7,0.7-2.3,0.7c-1.3,0-1.9-1.4-2.3-6.3
		c-0.3-4,2.5-5,5.2-5c2.1,0,4.1,0.6,4.5,1c1,0.9,14,0.5,20.7,1.1c0,0,3.1-1,6.2-1.9c0,0,0,0,0,0s0,0,0,0l0,0c0,0,0,0,0,0s0,0,0,0
		C631.1,420.8,633.8,420.2,635.5,420.2"/>
	<path class="st0" d="M604.8,477.7c-5.1,0-10.5-1.7-10.5-4.8c0-3.1,5.4-4.8,10.5-4.8s10.5,1.7,10.5,4.8
		C615.3,476.1,609.8,477.7,604.8,477.7"/>
	<path class="st0" d="M604.8,467.4c-5.6,0-11.3,1.9-11.3,5.6c0,3.7,5.7,5.6,11.3,5.6s11.3-1.9,11.3-5.6
		C616.1,469.3,610.4,467.4,604.8,467.4 M604.8,469c5.4,0,9.7,1.8,9.7,4c0,2.2-4.3,4-9.7,4s-9.7-1.8-9.7-4
		C595.1,470.8,599.4,469,604.8,469"/>
	<path class="st0" d="M627,478.1c-5.1,0-10.5-1.7-10.5-4.8s5.4-4.8,10.5-4.8c5.1,0,10.5,1.7,10.5,4.8S632.1,478.1,627,478.1"/>
	<path class="st0" d="M627,467.7c-5.6,0-11.3,1.9-11.3,5.6c0,3.7,5.7,5.6,11.3,5.6s11.3-1.9,11.3-5.6
		C638.3,469.7,632.6,467.7,627,467.7 M627,469.4c5.4,0,9.7,1.8,9.7,4c0,2.2-4.3,4-9.7,4s-9.7-1.8-9.7-4
		C617.3,471.1,621.7,469.4,627,469.4"/>
	<path class="st0" d="M586,406c-1.7,0-3.2-1.4-3.2-3.2v-14.8c0-1.7,1.4-3.2,3.2-3.2h20.6c1.7,0,3.2,1.4,3.2,3.2v14.8
		c0,1.7-1.4,3.2-3.2,3.2H586z"/>
	<path class="st0" d="M606.6,384.1H586c-2.2,0-4,1.8-4,4v14.8c0,2.2,1.8,4,4,4h20.6c2.2,0,4-1.8,4-4v-14.8
		C610.6,385.9,608.8,384.1,606.6,384.1 M606.6,385.7c1.3,0,2.4,1.1,2.4,2.4v14.8c0,1.3-1.1,2.4-2.4,2.4H586c-1.3,0-2.4-1.1-2.4-2.4
		v-14.8c0-1.3,1.1-2.4,2.4-2.4H606.6z"/>
	<path class="st0" d="M627.4,406c-1.7,0-3.2-1.4-3.2-3.2v-14.8c0-1.7,1.4-3.2,3.2-3.2h20.6c1.7,0,3.2,1.4,3.2,3.2v14.8
		c0,1.7-1.4,3.2-3.2,3.2H627.4z"/>
	<path class="st0" d="M647.9,384.1h-20.6c-2.2,0-4,1.8-4,4v14.8c0,2.2,1.8,4,4,4h20.6c2.2,0,4-1.8,4-4v-14.8
		C651.9,385.9,650.1,384.1,647.9,384.1 M647.9,385.7c1.3,0,2.4,1.1,2.4,2.4v14.8c0,1.3-1.1,2.4-2.4,2.4h-20.6
		c-1.3,0-2.4-1.1-2.4-2.4v-14.8c0-1.3,1.1-2.4,2.4-2.4H647.9z"/>
	<path class="st0" d="M617,427.2c-17.5,0-31.7-14.2-31.7-31.7c0-17.5,14.2-31.7,31.7-31.7c17.5,0,31.7,14.2,31.7,31.7
		C648.7,412.9,634.5,427.2,617,427.2"/>
	<path class="st0" d="M617,363c-17.9,0-32.5,14.6-32.5,32.5S599.1,428,617,428c17.9,0,32.5-14.6,32.5-32.5S634.9,363,617,363
		 M617,364.6c17,0,30.9,13.8,30.9,30.9c0,17.1-13.8,30.9-30.9,30.9s-30.9-13.8-30.9-30.9C586.1,378.4,599.9,364.6,617,364.6"/>
	<path class="st2" d="M597.5,427.6V473h16.7c1.6-1.9,1.9-9,2-12.7c0-1.3,0-2.2,0-2.2s0,0.9,0,2.2c0,3.7,0.2,10.8,1.4,12.7h17.3
		v-45.4H597.5z"/>
	<path class="st3" d="M597.5,427.6V473h16.7c1.6-1.9,1.9-9,2-12.7c0-1.3,0-2.2,0-2.2s0,0.9,0,2.2c0,3.7,0.2,10.8,1.4,12.7h17.3
		v-45.4H597.5z"/>
</g>
<rect x="597.5" y="455" class="st4" width="37.3" height="3.1"/>
<rect x="597.5" y="455" class="st5" width="37.3" height="3.1"/>
<rect x="615.2" y="428.8" class="st4" width="1.9" height="26.1"/>
<rect x="615.2" y="428.8" class="st5" width="1.9" height="26.1"/>
<g>
	<defs>
		<rect id="SVGID_3_" x="582.1" y="363" width="69.8" height="115.9"/>
	</defs>
	<clipPath id="SVGID_4_">
		<use xlink:href="#SVGID_3_"  style="overflow:visible;"/>
	</clipPath>
	<path class="st6" d="M647.9,395.5c0,17.1-13.8,30.9-30.9,30.9c-17,0-30.9-13.8-30.9-30.9c0-17,13.8-30.9,30.9-30.9
		C634,364.6,647.9,378.4,647.9,395.5"/>
	<circle class="st7" cx="617" cy="395.5" r="30.9"/>
	<path class="st6" d="M606.6,405.2H586c-1.3,0-2.4-1.1-2.4-2.4v-14.8c0-1.3,1.1-2.4,2.4-2.4h20.6c1.3,0,2.4,1.1,2.4,2.4v14.8
		C609,404.2,607.9,405.2,606.6,405.2"/>
	<path class="st7" d="M606.6,405.2H586c-1.3,0-2.4-1.1-2.4-2.4v-14.8c0-1.3,1.1-2.4,2.4-2.4h20.6c1.3,0,2.4,1.1,2.4,2.4v14.8
		C609,404.2,607.9,405.2,606.6,405.2z"/>
	<path class="st6" d="M647.9,405.2h-20.6c-1.3,0-2.4-1.1-2.4-2.4v-14.8c0-1.3,1.1-2.4,2.4-2.4h20.6c1.3,0,2.4,1.1,2.4,2.4v14.8
		C650.3,404.2,649.2,405.2,647.9,405.2"/>
	<path class="st7" d="M647.9,405.2h-20.6c-1.3,0-2.4-1.1-2.4-2.4v-14.8c0-1.3,1.1-2.4,2.4-2.4h20.6c1.3,0,2.4,1.1,2.4,2.4v14.8
		C650.3,404.2,649.2,405.2,647.9,405.2z"/>
</g>
<line class="st5" x1="625" y1="395.5" x2="609" y2="395.5"/>
<g>
	<defs>
		<rect id="SVGID_5_" x="582.1" y="363" width="69.8" height="115.9"/>
	</defs>
	<clipPath id="SVGID_6_">
		<use xlink:href="#SVGID_5_"  style="overflow:visible;"/>
	</clipPath>
	<path class="st8" d="M605.3,418.9c-0.7-1,1.9-11,11.4-11s12.6,10.1,11.9,11c-0.7,0.9-7.4-2.7-11.7-2.7
		C612.7,416.2,605.9,419.6,605.3,418.9"/>
	<path class="st9" d="M605.3,418.9c-0.7-1,1.9-11,11.4-11s12.6,10.1,11.9,11c-0.7,0.9-7.4-2.7-11.7-2.7
		C612.7,416.2,605.9,419.6,605.3,418.9z"/>
	<path class="st8" d="M614.5,473c0,2.2-4.3,4-9.7,4s-9.7-1.8-9.7-4c0-2.2,4.3-4,9.7-4S614.5,470.8,614.5,473"/>
	<ellipse class="st9" cx="604.8" cy="473" rx="9.7" ry="4"/>
	<path class="st8" d="M636.7,473.3c0,2.2-4.3,4-9.7,4s-9.7-1.8-9.7-4c0-2.2,4.3-4,9.7-4S636.7,471.1,636.7,473.3"/>
	<ellipse class="st9" cx="627" cy="473.3" rx="9.7" ry="4"/>
	<path class="st10" d="M639,400.9c0,1.2-1.5,2.1-3.3,2.1c-1.8,0-3.3-0.9-3.3-2.1c0-1.2,1.5-2.1,3.3-2.1
		C637.6,398.8,639,399.7,639,400.9"/>
	<path class="st10" d="M601,400.9c0,1.2-1.5,2.1-3.3,2.1c-1.8,0-3.3-0.9-3.3-2.1c0-1.2,1.5-2.1,3.3-2.1
		C599.5,398.8,601,399.7,601,400.9"/>
	<path class="st8" d="M631.4,446.7c-1.4,4.3,1.9,5.7,1.7,2.9c1.7,7.6,6.9,8.1,8.9,3.1c2.4-9.8-7.3-23.8-7.3-23.8l-3.7-1.3"/>
	<path class="st9" d="M631.4,446.7c-1.4,4.3,1.9,5.7,1.7,2.9c1.7,7.6,6.9,8.1,8.9,3.1c2.4-9.8-7.3-23.8-7.3-23.8l-3.7-1.3"/>
	<path class="st8" d="M601,447.3c1.4,4.3-1.9,5.7-1.7,2.9c-1.7,7.6-6.9,8.1-8.9,3.1c-2.4-9.8,7.3-23.8,7.3-23.8l4.6-0.7"/>
	<path class="st9" d="M601,447.3c1.4,4.3-1.9,5.7-1.7,2.9c-1.7,7.6-6.9,8.1-8.9,3.1c-2.4-9.8,7.3-23.8,7.3-23.8l4.6-0.7"/>
	<path class="st8" d="M605.6,430.2c0,0-2.4,6.3-0.3,7.4c2.2,1.1-1,6.4-1,6.4s-1.6,1.7-6.8,0c-1.3-2-2.5-12.9,0-14.4
		C600.1,428.2,605.6,430.2,605.6,430.2"/>
	<path class="st9" d="M605.6,430.2c0,0-2.4,6.3-0.3,7.4c2.2,1.1-1,6.4-1,6.4s-1.6,1.7-6.8,0c-1.3-2-2.5-12.9,0-14.4
		C600.1,428.2,605.6,430.2,605.6,430.2z"/>
	<path class="st8" d="M637.3,420.8c-0.7-1.1-4.9-0.3-8.7,0.7c-0.1,0,0.1,0,0,0c-3.1,0.9-6.2,1.9-6.2,1.9c-6.7-0.5-19.6-0.2-20.7-1.1
		c-1-0.9-10.2-3.1-9.7,4s1.6,6.8,4.6,5.5c3-1.3,6.4-2.9,9.5-0.9c3.1,2,18.4-1.1,23.7-1.6c1-0.1,2.2-0.2,3.5-0.4c0.3,0,0.6,0,0.9,0
		C641.7,430.2,638.5,422.8,637.3,420.8"/>
	<path class="st9" d="M637.3,420.8c-0.7-1.1-4.9-0.3-8.7,0.7c-0.1,0,0.1,0,0,0c-3.1,0.9-6.2,1.9-6.2,1.9c-6.7-0.5-19.6-0.2-20.7-1.1
		c-1-0.9-10.2-3.1-9.7,4s1.6,6.8,4.6,5.5c3-1.3,6.4-2.9,9.5-0.9c3.1,2,18.4-1.1,23.7-1.6c1-0.1,2.2-0.2,3.5-0.4c0.3,0,0.6,0,0.9,0
		C641.7,430.2,638.5,422.8,637.3,420.8z"/>
</g>
</svg>
