<?xml version="1.0" encoding="utf-8"?>
<!-- Generator: Adobe Illustrator 21.0.0, SVG Export Plug-In . SVG Version: 6.00 Build 0)  -->
<svg version="1.1" id="Calque_1" xmlns="http://www.w3.org/2000/svg" xmlns:xlink="http://www.w3.org/1999/xlink" x="0px" y="0px"
	 viewBox="0 0 1190.6 841.9" style="enable-background:new 0 0 1190.6 841.9;" xml:space="preserve">
<style type="text/css">
	.st0{clip-path:url(#SVGID_2_);fill:#FFFFFF;}
	.st1{clip-path:url(#SVGID_2_);fill:none;stroke:#FFFFFF;stroke-width:3.277;stroke-miterlimit:10;}
	.st2{clip-path:url(#SVGID_2_);fill:#27972E;}
	.st3{clip-path:url(#SVGID_2_);fill:none;stroke:#000000;stroke-width:0.683;stroke-miterlimit:10;}
	.st4{fill:#27972E;}
	.st5{fill:none;stroke:#000000;stroke-width:0.683;stroke-miterlimit:10;}
	.st6{clip-path:url(#SVGID_4_);fill:#27972E;}
	.st7{clip-path:url(#SVGID_4_);fill:none;stroke:#000000;stroke-width:0.683;stroke-miterlimit:10;}
	.st8{clip-path:url(#SVGID_6_);fill:#27972E;}
	.st9{clip-path:url(#SVGID_6_);fill:none;stroke:#000000;stroke-width:0.683;stroke-miterlimit:10;}
	.st10{clip-path:url(#SVGID_6_);}
</style>
<g>
	<defs>
		<rect id="SVGID_1_" x="618" y="297.3" width="83.2" height="117.6"/>
	</defs>
	<clipPath id="SVGID_2_">
		<use xlink:href="#SVGID_1_"  style="overflow:visible;"/>
	</clipPath>
	<path class="st0" d="M648,413.7c-5.2,0-10.7-1.7-10.7-4.8c0-3.1,5.5-4.8,10.7-4.8s10.7,1.7,10.7,4.8
		C658.7,412,653.2,413.7,648,413.7"/>
	<path class="st0" d="M648,403.2c-5.7,0-11.5,1.9-11.5,5.7c0,3.7,5.8,5.7,11.5,5.7c5.7,0,11.5-1.9,11.5-5.7
		C659.5,405.1,653.7,403.2,648,403.2 M648,404.8c5.4,0,9.8,1.8,9.8,4s-4.4,4-9.8,4s-9.8-1.8-9.8-4S642.6,404.8,648,404.8"/>
	<path class="st0" d="M670.6,414.1c-5.2,0-10.7-1.7-10.7-4.8c0-3.1,5.5-4.8,10.7-4.8s10.7,1.7,10.7,4.8
		C681.3,412.4,675.8,414.1,670.6,414.1"/>
	<path class="st0" d="M670.6,403.6c-5.7,0-11.5,1.9-11.5,5.7c0,3.7,5.8,5.7,11.5,5.7c5.7,0,11.5-1.9,11.5-5.7
		C682.1,405.5,676.3,403.6,670.6,403.6 M670.6,405.2c5.4,0,9.8,1.8,9.8,4c0,2.2-4.4,4-9.8,4c-5.4,0-9.8-1.8-9.8-4
		C660.8,407,665.2,405.2,670.6,405.2"/>
	<path class="st0" d="M678.5,363.9v-0.4h-37.9v46h16.9c1.6-1.9,1.9-9.2,2-12.9c0-1.3,0-2.2,0-2.2s0,0.9,0,2.2c0,3.7,0.2,11,1.4,12.9
		h17.6v-29.1"/>
	<path class="st1" d="M678.5,363.9v-0.4h-37.9v46h16.9c1.6-1.9,1.9-9.2,2-12.9c0-1.3,0-2.2,0-2.2s0,0.9,0,2.2c0,3.7,0.2,11,1.4,12.9
		h17.6v-29.1"/>
	<path class="st0" d="M644.4,376.8l1.2-13.6l-5.4,0.8c0,0-6,0.5-8.3-1.6c0.1-6.1-2.2-3.7-2-1.5c-1.5-6.7-8.5-8.2-10-2.9
		c-2.3,9,20.8,21.5,20.8,21.5l7.3,4.3"/>
	<path class="st1" d="M644.4,376.8l1.2-13.6l-5.4,0.8c0,0-6,0.5-8.3-1.6c0.1-6.1-2.2-3.7-2-1.5c-1.5-6.7-8.5-8.2-10-2.9
		c-2.3,9,20.8,21.5,20.8,21.5l7.3,4.3"/>
	<path class="st0" d="M674.8,377.1l-1.2-13.6l5.4,0.8c0,0,6,0.5,8.3-1.6c-0.1-6.1,2.2-3.7,2-1.5c1.5-6.7,8.5-8.2,10-2.9
		c2.3,9-20.8,21.5-20.8,21.5l-7.3,4.3"/>
	<path class="st1" d="M674.8,377.1l-1.2-13.6l5.4,0.8c0,0,6,0.5,8.3-1.6c-0.1-6.1,2.2-3.7,2-1.5c1.5-6.7,8.5-8.2,10-2.9
		c2.3,9-20.8,21.5-20.8,21.5l-7.3,4.3"/>
	<path class="st0" d="M653.4,367.6c-2.4,0-4-0.3-4.9-0.8c-1.6-0.9-4.4-1.1-7.1-1.1c-0.5,0-1,0-1.5,0c-0.5,0-0.9,0-1.4,0
		c-2.8,0-4.8-0.2-6-0.9c-2.4-1.6-2.2-5.9,0.7-10.7c1.3-2.2,2.2-3.6,3.6-3.6c1,0,1.7,0.8,2.3,1.5c1.7,2.1,5.5,4.5,7.4,4.6
		c0.8,0.1,2.6,0.2,4.7,0.2c3.9,0.2,9.3,0.4,12.2,0.8c1,0.1,2.1,0.2,3.1,0.2c2.6,0,5-0.4,7.3-1.2c1.1-0.4,3-1.9,4.7-3.2
		c2.5-2,4-3.1,5.1-3.1c0.2,0,0.4,0,0.5,0.1c0.9,0.1,4.9,0.9,5.2,4.2c0.2,1.9-1.5,4.5-3.1,6.3c-2.4,2.7-5.3,4.3-7.7,4.3
		c-0.1,0-0.2,0-0.2,0c-0.1,0-0.2,0-0.3,0c-1.7,0-5,0.4-8.9,1C663.7,366.8,657.7,367.6,653.4,367.6"/>
	<path class="st0" d="M683.5,349.5L683.5,349.5c-1.3,0-2.8,1.1-5.6,3.2c-1.5,1.2-3.4,2.7-4.5,3c-2.2,0.8-4.5,1.2-7,1.2
		c-1,0-2-0.1-3-0.2c-2.9-0.4-8.3-0.6-12.3-0.8c-2.1-0.1-3.9-0.2-4.6-0.2c-1.7-0.2-5.3-2.4-6.9-4.3c-0.7-0.8-1.6-1.8-2.9-1.8
		c-1.9,0-3,1.9-4.3,4c-3.1,5.2-3.3,9.9-0.4,11.8c1.4,0.9,3.4,1.1,6.5,1.1c0.5,0,0.9,0,1.4,0c0.5,0,1,0,1.4,0c2.6,0,5.3,0.1,6.7,1
		c1.1,0.6,2.8,0.9,5.3,0.9c4.3,0,10.3-0.8,15.6-1.5c3.7-0.5,7.1-1,8.8-1c0.1,0,0.2,0,0.3,0c0.1,0,0.2,0,0.3,0c3.8,0,7-3.2,8.3-4.5
		c0.8-0.9,3.6-4.1,3.3-6.9c-0.3-3.3-3.7-4.6-5.9-4.9C683.9,349.5,683.7,349.5,683.5,349.5 M683.5,351.1c0.1,0,0.2,0,0.3,0.1
		c0,0,4.4,0.4,4.7,3.4c0.3,3-5.4,9.6-10,9.6c-0.1,0-0.1,0-0.2,0c-0.1,0-0.2,0-0.4,0c-4.1,0-17.1,2.5-24.4,2.5
		c-2.1,0-3.7-0.2-4.5-0.7c-1.8-1.1-4.7-1.2-7.6-1.2c-1,0-1.9,0-2.9,0c-2.4,0-4.5-0.1-5.6-0.8c-2-1.3-1.7-5.1,0.9-9.6
		c1.2-2.1,2-3.2,2.9-3.2c0.5,0,1,0.4,1.6,1.2c1.8,2.1,5.7,4.7,8,4.9c2.3,0.2,12.5,0.5,16.8,1c1.1,0.1,2.2,0.2,3.2,0.2
		c3,0,5.5-0.5,7.6-1.3C676.6,356.4,681.8,351.1,683.5,351.1"/>
	<path class="st0" d="M629,341c-1.8,0-3.2-1.4-3.2-3.2v-15c0-1.8,1.4-3.2,3.2-3.2h20.9c1.8,0,3.2,1.4,3.2,3.2v15
		c0,1.8-1.4,3.2-3.2,3.2H629z"/>
	<path class="st0" d="M649.9,318.7H629c-2.2,0-4,1.8-4,4v15c0,2.2,1.8,4,4,4h20.9c2.2,0,4-1.8,4-4v-15
		C654,320.5,652.2,318.7,649.9,318.7 M649.9,320.3c1.3,0,2.4,1.1,2.4,2.4v15c0,1.3-1.1,2.4-2.4,2.4H629c-1.3,0-2.4-1.1-2.4-2.4v-15
		c0-1.3,1.1-2.4,2.4-2.4H649.9z"/>
	<path class="st0" d="M671,341c-1.8,0-3.2-1.4-3.2-3.2v-15c0-1.8,1.4-3.2,3.2-3.2h20.9c1.8,0,3.2,1.4,3.2,3.2v15
		c0,1.8-1.4,3.2-3.2,3.2H671z"/>
	<path class="st0" d="M691.9,318.7H671c-2.2,0-4,1.8-4,4v15c0,2.2,1.8,4,4,4h20.9c2.2,0,4-1.8,4-4v-15
		C695.9,320.5,694.1,318.7,691.9,318.7 M691.9,320.3c1.3,0,2.4,1.1,2.4,2.4v15c0,1.3-1.1,2.4-2.4,2.4H671c-1.3,0-2.4-1.1-2.4-2.4
		v-15c0-1.3,1.1-2.4,2.4-2.4H691.9z"/>
	<path class="st0" d="M660.6,362.4c-17.7,0-32.1-14.4-32.1-32.1c0-17.7,14.4-32.1,32.1-32.1c17.7,0,32.1,14.4,32.1,32.1
		C692.7,348,678.3,362.4,660.6,362.4"/>
	<path class="st0" d="M660.6,297.3c-18.2,0-33,14.8-33,33s14.8,33,33,33s33-14.8,33-33S678.7,297.3,660.6,297.3 M660.6,298.9
		c17.3,0,31.3,14,31.3,31.3c0,17.3-14,31.3-31.3,31.3c-17.3,0-31.3-14-31.3-31.3C629.2,312.9,643.2,298.9,660.6,298.9"/>
	<path class="st2" d="M678.5,363.2v-0.4h-37.9v46h16.9c1.6-1.9,1.9-9.2,2-12.9c0-1.3,0-2.2,0-2.2s0,0.9,0,2.2c0,3.7,0.2,11,1.4,12.9
		h17.6v-29.1c0,0,23.2-12.5,20.8-21.5c-1.5-5.3-8.5-3.8-10,2.9c0.1-2.2-2.2-4.7-2,1.5c-2.3,2.2-8.3,1.6-8.3,1.6"/>
	<path class="st3" d="M678.5,363.2v-0.4h-37.9v46h16.9c1.6-1.9,1.9-9.2,2-12.9c0-1.3,0-2.2,0-2.2s0,0.9,0,2.2c0,3.7,0.2,11,1.4,12.9
		h17.6v-29.1c0,0,23.2-12.5,20.8-21.5c-1.5-5.3-8.5-3.8-10,2.9c0.1-2.2-2.2-4.7-2,1.5c-2.3,2.2-8.3,1.6-8.3,1.6"/>
	<path class="st2" d="M640.7,379.5L640.7,379.5c0,0-23.2-12.5-20.8-21.5c1.5-5.3,8.5-3.8,10,2.9c-0.1-2.2,2.2-4.7,2,1.5
		c2.3,2.2,8.3,1.6,8.3,1.6l5.4-0.8l-1.2,13.6"/>
	<path class="st3" d="M640.7,379.5L640.7,379.5c0,0-23.2-12.5-20.8-21.5c1.5-5.3,8.5-3.8,10,2.9c-0.1-2.2,2.2-4.7,2,1.5
		c2.3,2.2,8.3,1.6,8.3,1.6l5.4-0.8l-1.2,13.6"/>
</g>
<rect x="658.6" y="364.1" class="st4" width="1.9" height="26.5"/>
<rect x="658.6" y="364.1" class="st5" width="1.9" height="26.5"/>
<rect x="640.7" y="390.6" class="st4" width="37.9" height="3.2"/>
<rect x="640.7" y="390.6" class="st5" width="37.9" height="3.2"/>
<g>
	<defs>
		<rect id="SVGID_3_" x="618" y="297.3" width="83.2" height="117.6"/>
	</defs>
	<clipPath id="SVGID_4_">
		<use xlink:href="#SVGID_3_"  style="overflow:visible;"/>
	</clipPath>
	<path class="st6" d="M691.8,330.2c0,17.3-14,31.3-31.3,31.3c-17.3,0-31.3-14-31.3-31.3s14-31.3,31.3-31.3
		C677.8,298.9,691.8,312.9,691.8,330.2"/>
	<circle class="st7" cx="660.5" cy="330.2" r="31.3"/>
	<path class="st6" d="M649.9,340.1H629c-1.3,0-2.4-1.1-2.4-2.4v-15c0-1.3,1.1-2.4,2.4-2.4h20.9c1.3,0,2.4,1.1,2.4,2.4v15
		C652.3,339.1,651.3,340.1,649.9,340.1"/>
	<path class="st7" d="M649.9,340.1H629c-1.3,0-2.4-1.1-2.4-2.4v-15c0-1.3,1.1-2.4,2.4-2.4h20.9c1.3,0,2.4,1.1,2.4,2.4v15
		C652.3,339.1,651.3,340.1,649.9,340.1z"/>
	<path class="st6" d="M691.9,340.1H671c-1.3,0-2.4-1.1-2.4-2.4v-15c0-1.3,1.1-2.4,2.4-2.4h20.9c1.3,0,2.4,1.1,2.4,2.4v15
		C694.3,339.1,693.2,340.1,691.9,340.1"/>
	<path class="st7" d="M691.9,340.1H671c-1.3,0-2.4-1.1-2.4-2.4v-15c0-1.3,1.1-2.4,2.4-2.4h20.9c1.3,0,2.4,1.1,2.4,2.4v15
		C694.3,339.1,693.2,340.1,691.9,340.1z"/>
</g>
<line class="st5" x1="668.6" y1="330.2" x2="652.3" y2="330.2"/>
<g>
	<defs>
		<rect id="SVGID_5_" x="618" y="297.3" width="83.2" height="117.6"/>
	</defs>
	<clipPath id="SVGID_6_">
		<use xlink:href="#SVGID_5_"  style="overflow:visible;"/>
	</clipPath>
	<path class="st8" d="M673.8,345.4c0.9,0.9-2.2,9.8-13.4,9.8c-11.2,0-14.8-9-14-9.8c0.8-0.8,8.7,2.4,13.7,2.4
		C665.2,347.8,673.2,344.8,673.8,345.4"/>
	<path class="st9" d="M673.8,345.4c0.9,0.9-2.2,9.8-13.4,9.8c-11.2,0-14.8-9-14-9.8c0.8-0.8,8.7,2.4,13.7,2.4
		C665.2,347.8,673.2,344.8,673.8,345.4z"/>
	<path class="st8" d="M683.7,351.2c0,0,4.4,0.4,4.7,3.4s-5.5,9.8-10.2,9.6c-4.6-0.2-25.3,4.1-29.3,1.8c-4-2.3-13.2-0.2-16-2
		c-2-1.3-1.7-5.1,0.9-9.6c2-3.3,2.8-4.2,4.5-2.1c1.8,2.1,5.7,4.7,8,4.9c2.3,0.2,12.5,0.5,16.8,1c4.4,0.5,8-0.1,10.8-1.1
		C676.8,356.3,682.5,350.4,683.7,351.2"/>
	<path class="st9" d="M683.7,351.2c0,0,4.4,0.4,4.7,3.4s-5.5,9.8-10.2,9.6c-4.6-0.2-25.3,4.1-29.3,1.8c-4-2.3-13.2-0.2-16-2
		c-2-1.3-1.7-5.1,0.9-9.6c2-3.3,2.8-4.2,4.5-2.1c1.8,2.1,5.7,4.7,8,4.9c2.3,0.2,12.5,0.5,16.8,1c4.4,0.5,8-0.1,10.8-1.1
		C676.8,356.3,682.5,350.4,683.7,351.2z"/>
	<path class="st8" d="M648.9,366.1c0,0-2.5,6.4-0.3,7.5c2.2,1.1-1,6.5-1,6.5s-1.6,1.8-6.9,0c-1.3-2-2.5-13.1,0-14.6
		S648.9,366.1,648.9,366.1"/>
	<path class="st9" d="M648.9,366.1c0,0-2.5,6.4-0.3,7.5c2.2,1.1-1,6.5-1,6.5s-1.6,1.8-6.9,0c-1.3-2-2.5-13.1,0-14.6
		S648.9,366.1,648.9,366.1z"/>
	<path class="st8" d="M657.9,408.9c0,2.2-4.4,4-9.8,4c-5.4,0-9.8-1.8-9.8-4s4.4-4,9.8-4C653.5,404.8,657.9,406.6,657.9,408.9"/>
	<ellipse class="st9" cx="648" cy="408.9" rx="9.8" ry="4"/>
	<path class="st8" d="M680.5,409.2c0,2.2-4.4,4-9.8,4c-5.4,0-9.8-1.8-9.8-4c0-2.2,4.4-4,9.8-4C676.1,405.2,680.5,407,680.5,409.2"/>
	<ellipse class="st9" cx="670.6" cy="409.2" rx="9.8" ry="4"/>
	<path class="st10" d="M681.3,330.4c0,2.4-1,4.3-2.3,4.3c-1.3,0-2.3-1.9-2.3-4.3c0-2.4,1-4.3,2.3-4.3
		C680.3,326.1,681.3,328,681.3,330.4"/>
	<path class="st10" d="M643.7,330.4c0,2.4-1,4.3-2.3,4.3c-1.3,0-2.3-1.9-2.3-4.3c0-2.4,1-4.3,2.3-4.3
		C642.7,326.1,643.7,328,643.7,330.4"/>
</g>
</svg>
