<?xml version="1.0" encoding="utf-8"?>
<!-- Generator: Adobe Illustrator 21.0.0, SVG Export Plug-In . SVG Version: 6.00 Build 0)  -->
<svg version="1.1" id="Calque_1" xmlns="http://www.w3.org/2000/svg" xmlns:xlink="http://www.w3.org/1999/xlink" x="0px" y="0px"
	 viewBox="0 0 1190.6 841.9" style="enable-background:new 0 0 1190.6 841.9;" xml:space="preserve">
<style type="text/css">
	.st0{clip-path:url(#SVGID_2_);fill:#F7D111;}
</style>
<g>
	<defs>
		<rect id="SVGID_1_" x="568.9" y="334.2" width="80.8" height="80.8"/>
	</defs>
	<clipPath id="SVGID_2_">
		<use xlink:href="#SVGID_1_"  style="overflow:visible;"/>
	</clipPath>
	<path class="st0" d="M609.3,334.2c-22.3,0-40.4,18.1-40.4,40.4c0,22.3,18.1,40.4,40.4,40.4c22.3,0,40.4-18.1,40.4-40.4
		C649.7,352.3,631.6,334.2,609.3,334.2z M629.4,380.1l-26.7,16c-3.4,2.1-7.5-0.9-7.5-5.4v-32c0-4.5,4.1-7.5,7.5-5.4l26.7,16
		C633.1,371.5,633.1,377.8,629.4,380.1z"/>
	<path class="st0" d="M624.6,371l-18.8-11.3c-2.8-1.7-6.4,0.3-6.4,3.6v22.6c0,3.3,3.6,5.3,6.4,3.6l18.8-11.3
		C627.4,376.6,627.4,372.7,624.6,371"/>
</g>
</svg>
