<?xml version="1.0" encoding="utf-8"?>
<!-- Generator: Adobe Illustrator 21.0.0, SVG Export Plug-In . SVG Version: 6.00 Build 0)  -->
<svg version="1.1" id="Calque_1" xmlns="http://www.w3.org/2000/svg" xmlns:xlink="http://www.w3.org/1999/xlink" x="0px" y="0px"
	 viewBox="0 0 1190.6 841.9" style="enable-background:new 0 0 1190.6 841.9;" xml:space="preserve">
<style type="text/css">
	.st0{clip-path:url(#SVGID_2_);fill:#FFFFFF;}
	.st1{clip-path:url(#SVGID_2_);fill:none;stroke:#3378AF;stroke-width:1.5;stroke-miterlimit:10;}
</style>
<g>
	<defs>
		<rect id="SVGID_1_" x="564" y="390.6" width="64.3" height="64.3"/>
	</defs>
	<clipPath id="SVGID_2_">
		<use xlink:href="#SVGID_1_"  style="overflow:visible;"/>
	</clipPath>
	<path class="st0" d="M586.2,391.3h-15.6c-1.6,0-3.1,0.6-4.2,1.7c-1.1,1.1-1.7,2.6-1.7,4.2v17v0.8h0.8h2.7h0.8v-0.8v-17
		c0-0.5,0.2-0.9,0.5-1.2c0.3-0.3,0.8-0.5,1.2-0.5h16.9h0.8v-0.8v-2.7v-0.8h-0.8H586.2z"/>
	<path class="st1" d="M586.2,391.3h-15.6c-1.6,0-3.1,0.6-4.2,1.7c-1.1,1.1-1.7,2.6-1.7,4.2v17v0.8h0.8h2.7h0.8v-0.8v-17
		c0-0.5,0.2-0.9,0.5-1.2c0.3-0.3,0.8-0.5,1.2-0.5h16.9h0.8v-0.8v-2.7v-0.8h-0.8H586.2z"/>
	<path class="st0" d="M564.8,432.7v15.5c0,1.6,0.6,3.1,1.7,4.2c1.1,1.1,2.6,1.7,4.2,1.7h16.9h0.8v-0.8v-2.7v-0.8h-0.8h-16.9
		c-0.5,0-0.9-0.2-1.2-0.5c-0.3-0.3-0.5-0.8-0.5-1.2v-16.9v-0.8h-0.8h-2.7h-0.8v0.8V432.7z"/>
	<path class="st1" d="M564.8,432.7v15.5c0,1.6,0.6,3.1,1.7,4.2c1.1,1.1,2.6,1.7,4.2,1.7h16.9h0.8v-0.8v-2.7v-0.8h-0.8h-16.9
		c-0.5,0-0.9-0.2-1.2-0.5c-0.3-0.3-0.5-0.8-0.5-1.2v-16.9v-0.8h-0.8h-2.7h-0.8v0.8V432.7z"/>
	<path class="st0" d="M627.5,412.8v-15.6c0-1.6-0.6-3.1-1.7-4.2c-1.1-1.1-2.6-1.7-4.2-1.7h-16.9h-0.8v0.8v2.7v0.8h0.8h16.9
		c0.5,0,0.9,0.2,1.2,0.5c0.3,0.3,0.5,0.8,0.5,1.2v16.9v0.8h0.8h2.7h0.8v-0.8V412.8z"/>
	<path class="st1" d="M627.5,412.8v-15.6c0-1.6-0.6-3.1-1.7-4.2c-1.1-1.1-2.6-1.7-4.2-1.7h-16.9h-0.8v0.8v2.7v0.8h0.8h16.9
		c0.5,0,0.9,0.2,1.2,0.5c0.3,0.3,0.5,0.8,0.5,1.2v16.9v0.8h0.8h2.7h0.8v-0.8V412.8z"/>
	<path class="st0" d="M606,454.1h15.6c1.6,0,3.1-0.6,4.2-1.7c1.1-1.1,1.7-2.6,1.7-4.2v-16.9v-0.8h-0.8h-2.7h-0.8v0.8v16.9
		c0,0.5-0.2,0.9-0.5,1.2c-0.3,0.3-0.8,0.5-1.2,0.5h-16.9h-0.8v0.8v2.7v0.8h0.8C605.1,454.1,605.6,454.1,606,454.1"/>
	<path class="st1" d="M606,454.1h15.6c1.6,0,3.1-0.6,4.2-1.7c1.1-1.1,1.7-2.6,1.7-4.2v-16.9v-0.8h-0.8h-2.7h-0.8v0.8v16.9
		c0,0.5-0.2,0.9-0.5,1.2c-0.3,0.3-0.8,0.5-1.2,0.5h-16.9h-0.8v0.8v2.7v0.8h0.8C605.1,454.1,605.6,454.1,606,454.1z"/>
</g>
</svg>
