<?xml version="1.0" encoding="utf-8"?>
<!-- Generator: Adobe Illustrator 21.0.0, SVG Export Plug-In . SVG Version: 6.00 Build 0)  -->
<svg version="1.1" id="Calque_1" xmlns="http://www.w3.org/2000/svg" xmlns:xlink="http://www.w3.org/1999/xlink" x="0px" y="0px"
	 viewBox="0 0 1190.6 841.9" style="enable-background:new 0 0 1190.6 841.9;" xml:space="preserve">
<style type="text/css">
	.st0{fill:#F7D111;}
</style>
<path class="st0" d="M595.3,350.1l14.7,35.4l35.4-14.7l-14.7,35.4l35.4,14.7l-35.4,14.7l14.7,35.4L610,456.4l-14.7,35.4l-14.7-35.4
	L545.2,471l14.7-35.4L524.4,421l35.4-14.7l-14.7-35.4l35.4,14.7L595.3,350.1z M595.3,333.3l-18.1,43.8L533.3,359l18.1,43.8
	L507.7,421l43.8,18.1l-18.1,43.8l43.8-18.2l18.1,43.8l18.2-43.8l43.8,18.2l-18.1-43.8l43.8-18.1l-43.8-18.2l18.1-43.8l-43.8,18.2
	L595.3,333.3z"/>
</svg>
